HIERARCHY
ROOT mixamorig:Hips
{
	OFFSET -0.000008 104.274872 1.554316
	CHANNELS 6 Xposition Yposition Zposition Xrotation Yrotation Zrotation
	JOINT mixamorig:Spine
	{
		OFFSET -0.000005 10.181595 0.131519
		CHANNELS 6 Xposition Yposition Zposition Xrotation Yrotation Zrotation
		JOINT mixamorig:Spine1
		{
			OFFSET -0.000000 9.893959 -1.470707
			CHANNELS 6 Xposition Yposition Zposition Xrotation Yrotation Zrotation
			JOINT mixamorig:Spine2
			{
				OFFSET -0.000000 9.220757 -1.370641
				CHANNELS 6 Xposition Yposition Zposition Xrotation Yrotation Zrotation
				JOINT mixamorig:Neck
				{
					OFFSET 0.000001 16.740417 -2.049036
					CHANNELS 6 Xposition Yposition Zposition Xrotation Yrotation Zrotation
					JOINT mixamorig:Head
					{
						OFFSET 0.000000 9.617874 1.685006
						CHANNELS 6 Xposition Yposition Zposition Xrotation Yrotation Zrotation
						JOINT mixamorig:HeadTop_End
						{
							OFFSET 0.000002 22.037354 7.501101
							CHANNELS 6 Xposition Yposition Zposition Xrotation Yrotation Zrotation
							End Site
							{
								OFFSET 0.000168 2310.654297 -282.823242
							}
						}
					}
				}
				JOINT mixamorig:RightShoulder
				{
					OFFSET -4.569970 11.014908 -2.160885
					CHANNELS 6 Xposition Yposition Zposition Xrotation Yrotation Zrotation
					JOINT mixamorig:RightArm
					{
						OFFSET -10.592851 -0.524811 -2.232101
						CHANNELS 6 Xposition Yposition Zposition Xrotation Yrotation Zrotation
						JOINT mixamorig:RightForeArm
						{
							OFFSET -27.841511 0.000031 -0.000004
							CHANNELS 6 Xposition Yposition Zposition Xrotation Yrotation Zrotation
							JOINT mixamorig:RightHand
							{
								OFFSET -28.328831 -0.000015 0.000015
								CHANNELS 6 Xposition Yposition Zposition Xrotation Yrotation Zrotation
								JOINT mixamorig:RightHandThumb1
								{
									OFFSET -2.464806 -1.573990 2.681852
									CHANNELS 6 Xposition Yposition Zposition Xrotation Yrotation Zrotation
									JOINT mixamorig:RightHandThumb2
									{
										OFFSET -3.215179 -1.872803 1.924282
										CHANNELS 6 Xposition Yposition Zposition Xrotation Yrotation Zrotation
										JOINT mixamorig:RightHandThumb3
										{
											OFFSET -2.654831 -1.527969 1.512609
											CHANNELS 6 Xposition Yposition Zposition Xrotation Yrotation Zrotation
											JOINT mixamorig:RightHandThumb4
											{
												OFFSET -2.018814 -1.152008 1.108052
												CHANNELS 6 Xposition Yposition Zposition Xrotation Yrotation Zrotation
												End Site
												{
													OFFSET -188.809540 -114.533607 132.431396
												}
											}
										}
									}
								}
								JOINT mixamorig:RightHandIndex1
								{
									OFFSET -9.108284 -0.517868 2.259835
									CHANNELS 6 Xposition Yposition Zposition Xrotation Yrotation Zrotation
									JOINT mixamorig:RightHandIndex2
									{
										OFFSET -3.699989 0.000000 0.001215
										CHANNELS 6 Xposition Yposition Zposition Xrotation Yrotation Zrotation
										JOINT mixamorig:RightHandIndex3
										{
											OFFSET -2.850006 0.000031 -0.000522
											CHANNELS 6 Xposition Yposition Zposition Xrotation Yrotation Zrotation
											JOINT mixamorig:RightHandIndex4
											{
												OFFSET -2.772186 -0.000015 -0.000020
												CHANNELS 6 Xposition Yposition Zposition Xrotation Yrotation Zrotation
												End Site
												{
													OFFSET -277.218445 0.000000 -0.050231
												}
											}
										}
									}
								}
								JOINT mixamorig:RightHandMiddle1
								{
									OFFSET -9.532516 -0.000031 -0.000023
									CHANNELS 6 Xposition Yposition Zposition Xrotation Yrotation Zrotation
									JOINT mixamorig:RightHandMiddle2
									{
										OFFSET -3.700005 -0.000015 0.003713
										CHANNELS 6 Xposition Yposition Zposition Xrotation Yrotation Zrotation
										JOINT mixamorig:RightHandMiddle3
										{
											OFFSET -2.949974 0.000015 -0.002054
											CHANNELS 6 Xposition Yposition Zposition Xrotation Yrotation Zrotation
											JOINT mixamorig:RightHandMiddle4
											{
												OFFSET -2.946640 0.000000 -0.000156
												CHANNELS 6 Xposition Yposition Zposition Xrotation Yrotation Zrotation
												End Site
												{
													OFFSET -294.664337 0.000000 -0.113670
												}
											}
										}
									}
								}
								JOINT mixamorig:RightHandRing1
								{
									OFFSET -9.103600 -0.043076 -1.865134
									CHANNELS 6 Xposition Yposition Zposition Xrotation Yrotation Zrotation
									JOINT mixamorig:RightHandRing2
									{
										OFFSET -3.379288 0.000000 -0.001055
										CHANNELS 6 Xposition Yposition Zposition Xrotation Yrotation Zrotation
										JOINT mixamorig:RightHandRing3
										{
											OFFSET -2.889687 -0.000015 0.000379
											CHANNELS 6 Xposition Yposition Zposition Xrotation Yrotation Zrotation
											JOINT mixamorig:RightHandRing4
											{
												OFFSET -2.638809 -0.000015 0.000941
												CHANNELS 6 Xposition Yposition Zposition Xrotation Yrotation Zrotation
												End Site
												{
													OFFSET -263.880371 0.000000 0.516020
												}
											}
										}
									}
								}
								JOINT mixamorig:RightHandPinky1
								{
									OFFSET -8.076683 -0.486710 -3.806280
									CHANNELS 6 Xposition Yposition Zposition Xrotation Yrotation Zrotation
									JOINT mixamorig:RightHandPinky2
									{
										OFFSET -3.600014 -0.000015 -0.003747
										CHANNELS 6 Xposition Yposition Zposition Xrotation Yrotation Zrotation
										JOINT mixamorig:RightHandPinky3
										{
											OFFSET -2.099983 0.000000 -0.005739
											CHANNELS 6 Xposition Yposition Zposition Xrotation Yrotation Zrotation
											JOINT mixamorig:RightHandPinky4
											{
												OFFSET -2.115768 -0.000031 -0.003680
												CHANNELS 6 Xposition Yposition Zposition Xrotation Yrotation Zrotation
												End Site
												{
													OFFSET -211.577087 0.000000 -0.350686
												}
											}
										}
									}
								}
							}
						}
					}
				}
				JOINT mixamorig:LeftShoulder
				{
					OFFSET 4.570447 11.014725 -2.160855
					CHANNELS 6 Xposition Yposition Zposition Xrotation Yrotation Zrotation
					JOINT mixamorig:LeftArm
					{
						OFFSET 10.592371 -0.524597 -2.232119
						CHANNELS 6 Xposition Yposition Zposition Xrotation Yrotation Zrotation
						JOINT mixamorig:LeftForeArm
						{
							OFFSET 27.841532 -0.000031 0.000026
							CHANNELS 6 Xposition Yposition Zposition Xrotation Yrotation Zrotation
							JOINT mixamorig:LeftHand
							{
								OFFSET 28.328846 -0.000061 0.000022
								CHANNELS 6 Xposition Yposition Zposition Xrotation Yrotation Zrotation
								JOINT mixamorig:LeftHandThumb1
								{
									OFFSET 2.466141 -1.576172 2.681732
									CHANNELS 6 Xposition Yposition Zposition Xrotation Yrotation Zrotation
									JOINT mixamorig:LeftHandThumb2
									{
										OFFSET 3.217812 -1.872070 1.916482
										CHANNELS 6 Xposition Yposition Zposition Xrotation Yrotation Zrotation
										JOINT mixamorig:LeftHandThumb3
										{
											OFFSET 2.656029 -1.528778 1.514513
											CHANNELS 6 Xposition Yposition Zposition Xrotation Yrotation Zrotation
											JOINT mixamorig:LeftHandThumb4
											{
												OFFSET 2.020889 -1.154053 1.115139
												CHANNELS 6 Xposition Yposition Zposition Xrotation Yrotation Zrotation
												End Site
												{
													OFFSET 190.885437 -115.081749 130.048782
												}
											}
										}
									}
								}
								JOINT mixamorig:LeftHandIndex1
								{
									OFFSET 9.109314 -0.518021 2.259871
									CHANNELS 6 Xposition Yposition Zposition Xrotation Yrotation Zrotation
									JOINT mixamorig:LeftHandIndex2
									{
										OFFSET 3.699989 0.000000 -0.000322
										CHANNELS 6 Xposition Yposition Zposition Xrotation Yrotation Zrotation
										JOINT mixamorig:LeftHandIndex3
										{
											OFFSET 2.850006 0.000000 0.000352
											CHANNELS 6 Xposition Yposition Zposition Xrotation Yrotation Zrotation
											JOINT mixamorig:LeftHandIndex4
											{
												OFFSET 2.774864 -0.000031 -0.000027
												CHANNELS 6 Xposition Yposition Zposition Xrotation Yrotation Zrotation
												End Site
												{
													OFFSET 277.486267 0.000000 -0.009857
												}
											}
										}
									}
								}
								JOINT mixamorig:LeftHandMiddle1
								{
									OFFSET 9.533394 0.000061 0.000044
									CHANNELS 6 Xposition Yposition Zposition Xrotation Yrotation Zrotation
									JOINT mixamorig:LeftHandMiddle2
									{
										OFFSET 3.699989 -0.000015 -0.000231
										CHANNELS 6 Xposition Yposition Zposition Xrotation Yrotation Zrotation
										JOINT mixamorig:LeftHandMiddle3
										{
											OFFSET 2.949997 -0.000015 -0.000059
											CHANNELS 6 Xposition Yposition Zposition Xrotation Yrotation Zrotation
											JOINT mixamorig:LeftHandMiddle4
											{
												OFFSET 2.952896 0.000031 0.000063
												CHANNELS 6 Xposition Yposition Zposition Xrotation Yrotation Zrotation
												End Site
												{
													OFFSET 295.289337 0.000000 0.022810
												}
											}
										}
									}
								}
								JOINT mixamorig:LeftHandRing1
								{
									OFFSET 9.104523 -0.042999 -1.865074
									CHANNELS 6 Xposition Yposition Zposition Xrotation Yrotation Zrotation
									JOINT mixamorig:LeftHandRing2
									{
										OFFSET 3.150009 -0.000031 0.000043
										CHANNELS 6 Xposition Yposition Zposition Xrotation Yrotation Zrotation
										JOINT mixamorig:LeftHandRing3
										{
											OFFSET 2.949982 -0.000015 0.000040
											CHANNELS 6 Xposition Yposition Zposition Xrotation Yrotation Zrotation
											JOINT mixamorig:LeftHandRing4
											{
												OFFSET 2.644348 0.000000 0.000057
												CHANNELS 6 Xposition Yposition Zposition Xrotation Yrotation Zrotation
												End Site
												{
													OFFSET 264.434631 0.000000 0.012105
												}
											}
										}
									}
								}
								JOINT mixamorig:LeftHandPinky1
								{
									OFFSET 8.077789 -0.486847 -3.806259
									CHANNELS 6 Xposition Yposition Zposition Xrotation Yrotation Zrotation
									JOINT mixamorig:LeftHandPinky2
									{
										OFFSET 3.599953 0.000031 0.014727
										CHANNELS 6 Xposition Yposition Zposition Xrotation Yrotation Zrotation
										JOINT mixamorig:LeftHandPinky3
										{
											OFFSET 2.100021 0.000015 0.007705
											CHANNELS 6 Xposition Yposition Zposition Xrotation Yrotation Zrotation
											JOINT mixamorig:LeftHandPinky4
											{
												OFFSET 2.125504 0.000031 0.007517
												CHANNELS 6 Xposition Yposition Zposition Xrotation Yrotation Zrotation
												End Site
												{
													OFFSET 212.550781 0.000000 0.625752
												}
											}
										}
									}
								}
							}
						}
					}
				}
			}
		}
	}
	JOINT mixamorig:RightUpLeg
	{
		OFFSET -8.207787 -6.751648 -1.599560
		CHANNELS 6 Xposition Yposition Zposition Xrotation Yrotation Zrotation
		JOINT mixamorig:RightLeg
		{
			OFFSET -0.000002 -44.370117 0.345942
			CHANNELS 6 Xposition Yposition Zposition Xrotation Yrotation Zrotation
			JOINT mixamorig:RightFoot
			{
				OFFSET 0.000003 -44.423679 -3.043532
				CHANNELS 6 Xposition Yposition Zposition Xrotation Yrotation Zrotation
				JOINT mixamorig:RightToeBase
				{
					OFFSET -0.000002 -8.728671 10.710558
					CHANNELS 6 Xposition Yposition Zposition Xrotation Yrotation Zrotation
					JOINT mixamorig:RightToe_End
					{
						OFFSET -0.000001 -0.000679 9.278119
						CHANNELS 6 Xposition Yposition Zposition Xrotation Yrotation Zrotation
						End Site
						{
							OFFSET 0.000000 -0.067690 927.812134
						}
					}
				}
			}
		}
	}
	JOINT mixamorig:LeftUpLeg
	{
		OFFSET 8.207793 -6.751686 -1.599556
		CHANNELS 6 Xposition Yposition Zposition Xrotation Yrotation Zrotation
		JOINT mixamorig:LeftLeg
		{
			OFFSET -0.000004 -44.370014 0.346954
			CHANNELS 6 Xposition Yposition Zposition Xrotation Yrotation Zrotation
			JOINT mixamorig:LeftFoot
			{
				OFFSET -0.000001 -44.423672 -3.044401
				CHANNELS 6 Xposition Yposition Zposition Xrotation Yrotation Zrotation
				JOINT mixamorig:LeftToeBase
				{
					OFFSET -0.000002 -8.728669 10.710558
					CHANNELS 6 Xposition Yposition Zposition Xrotation Yrotation Zrotation
					JOINT mixamorig:LeftToe_End
					{
						OFFSET -0.000003 -0.000679 9.278133
						CHANNELS 6 Xposition Yposition Zposition Xrotation Yrotation Zrotation
						End Site
						{
							OFFSET 0.000000 -0.068021 927.813477
						}
					}
				}
			}
		}
	}
}
MOTION
Frames: 3
Frame Time: 0.033333
0.000006 104.270477 1.554256 0.000010 0.000003 -0.000113 -0.000005 10.181587 0.131522 0.000001 -0.000003 0.000084 -0.000000 9.893967 -1.470711 0.000001 0.000000 -0.000000 -0.000000 9.220802 -1.370642 0.000000 -0.000000 -0.000000 0.000001 16.740433 -2.049030 0.000000 -0.000000 -0.000000 0.000000 9.617859 1.685014 0.000000 0.000000 0.000000 0.000002 22.037384 7.501101 0.000000 -0.000000 0.000000 -4.569968 11.014880 -2.160881 0.000008 0.000001 -0.000038 -10.592874 -0.524759 -2.231921 75.780840 27.555290 -21.607169 -27.841499 -0.000006 0.000559 -44.961595 106.586099 58.064224 -28.328819 0.000022 0.000030 -0.000317 -0.000045 0.000006 -2.464396 -1.573865 2.682343 -39.752766 -154.712432 7.323169 -3.215277 -1.872620 1.924651 155.223398 30.706304 -2.033222 -2.654958 -1.527877 1.513090 146.049962 27.043536 -37.915220 -2.018841 -1.151999 1.108072 -0.000004 0.000006 0.000002 -9.108373 -0.517560 2.260149 106.909604 15.451848 -20.807353 -3.700079 0.000329 0.001541 103.474777 11.184395 -14.124663 -2.850075 0.000357 -0.000241 102.058927 8.490374 -10.484541 -2.772191 0.000002 -0.000019 0.000000 -0.000000 -0.000001 -9.532583 0.000255 0.000299 104.816964 16.517530 -21.538821 -3.700053 0.000339 0.004024 107.204771 9.834567 -13.187977 -2.950043 0.000345 -0.001754 108.799149 9.855098 -13.723424 -2.946636 0.000014 -0.000161 -0.000000 0.000001 -0.000001 -9.103698 -0.042788 -1.864806 102.500840 18.487073 -22.869992 -3.379325 0.000327 -0.000762 107.094347 8.274656 -11.208790 -2.889755 0.000335 0.000732 115.896043 6.648376 -10.672685 -2.638817 0.000001 0.000945 -0.000001 0.000000 0.000000 -8.076768 -0.486424 -3.805978 97.276032 22.540085 -25.329383 -3.600049 0.000283 -0.003454 103.848088 10.824578 -13.325197 -2.100026 0.000299 -0.005364 111.304831 6.882197 -9.729602 -2.115765 -0.000013 -0.003685 -0.000000 0.000000 -0.000001 4.570446 11.014691 -2.160851 -0.000018 0.000010 -0.000021 10.592503 -0.524537 -2.232386 60.068256 -59.959786 36.889418 27.841770 -0.000048 -0.000122 217.392162 -79.067417 224.589925 28.328833 -0.000013 0.000022 0.000020 -0.000089 -0.000000 2.466087 -1.576169 2.681888 -11.869328 142.941161 -50.052320 3.217480 -1.871761 1.916530 130.391521 -23.385302 -115.824941 2.656073 -1.528761 1.514592 152.862721 -15.232382 91.926710 2.020895 -1.154071 1.115150 -0.000001 0.000003 0.000004 9.109322 -0.518018 2.259926 163.714662 -41.213242 138.302301 3.700063 -0.000003 -0.000295 149.339887 -40.616277 106.983384 2.850070 0.000063 0.000395 161.228514 -28.603704 114.077567 2.774879 -0.000017 -0.000025 -0.000002 0.000002 -0.000000 9.533519 0.000145 0.000038 136.175531 -35.582717 77.143640 3.700112 0.000084 -0.000236 140.711104 -34.621939 82.244316 2.950119 0.000136 -0.000076 140.944068 -27.322994 68.855499 2.952871 -0.000032 0.000063 -0.000000 0.000000 0.000001 9.104619 -0.042839 -1.865194 100.950114 -22.250297 26.814168 3.150057 0.000211 -0.000118 91.882778 -12.659644 13.080927 2.950005 0.000208 -0.000103 93.484021 -5.241838 5.571886 2.644337 0.000033 0.000064 -0.000001 0.000006 0.000001 8.077871 -0.486663 -3.806379 102.593628 -19.481667 24.929528 3.599996 0.000272 0.014572 100.112063 -5.641554 7.287802 2.100003 0.000300 0.007541 104.509203 -0.526570 1.210820 2.125497 -0.000017 0.007531 0.000001 -0.000002 -0.000000 -8.207786 -6.751667 -1.599560 -0.077001 -0.000003 0.000080 -0.000002 -44.370110 0.345938 0.153719 -0.000000 -0.000000 0.000000 -44.423679 -3.043532 -0.076700 0.000000 -0.000002 -0.000006 -8.728667 10.710559 -0.000009 -0.000000 -0.000000 -0.000001 -0.000679 9.278123 0.000000 -0.000000 -0.000000 8.207792 -6.751710 -1.599556 -0.074518 -0.000003 0.000081 -0.000002 -44.370014 0.346960 0.148822 0.000002 0.000000 -0.000001 -44.423664 -3.044403 -0.074314 0.000000 -0.000002 -0.000004 -8.728671 10.710558 0.000007 -0.000000 -0.000000 0.000000 -0.000680 9.278137 -0.000000 0.000000 -0.000001 
0.000006 104.270477 1.554256 0.000010 0.000003 -0.000113 -0.000005 10.181587 0.131522 0.000001 -0.000003 0.000084 -0.000000 9.893967 -1.470711 0.000001 0.000000 -0.000000 -0.000000 9.220802 -1.370642 0.000000 -0.000000 -0.000000 0.000001 16.740433 -2.049030 0.000000 -0.000000 -0.000000 0.000000 9.617859 1.685014 0.000000 0.000000 0.000000 0.000002 22.037384 7.501101 0.000000 -0.000000 0.000000 -4.569968 11.014880 -2.160881 0.000008 0.000001 -0.000038 -10.592867 -0.524783 -2.231889 75.663640 33.839998 -26.583299 -27.841511 0.000002 0.000567 -44.925586 105.477163 57.047516 -28.328835 -0.000004 0.000030 -0.000319 -0.000045 0.000003 -2.464390 -1.573837 2.682341 -42.471294 -156.306420 1.842406 -3.215279 -1.872598 1.924666 153.765740 30.821229 -0.521635 -2.654970 -1.527867 1.513071 145.114008 27.406822 -35.759469 -2.018823 -1.152004 1.108062 -0.000002 -0.000001 0.000004 -9.108381 -0.517556 2.260170 106.358961 14.941886 -19.931899 -3.700067 0.000334 0.001547 103.371396 10.752716 -13.555561 -2.850075 0.000375 -0.000234 101.954780 8.121786 -10.011631 -2.772177 -0.000002 -0.000020 -0.000000 -0.000002 -0.000000 -9.532583 0.000263 0.000296 104.858697 15.565038 -20.331491 -3.700058 0.000338 0.004017 106.731739 9.386772 -12.477502 -2.950042 0.000347 -0.001730 108.147487 9.546882 -13.138764 -2.946619 -0.000000 -0.000157 -0.000000 0.000001 0.000000 -9.103703 -0.042780 -1.864833 102.995141 17.376616 -21.691701 -3.379303 0.000320 -0.000751 106.241967 6.863224 -9.161790 -2.889747 0.000369 0.000711 114.465289 5.843151 -9.137117 -2.638812 -0.000001 0.000936 -0.000000 0.000002 0.000001 -8.076774 -0.486420 -3.805964 97.131184 21.553895 -24.162332 -3.600057 0.000287 -0.003443 104.227334 8.992452 -11.082300 -2.100005 0.000301 -0.005395 110.646531 5.542130 -7.686514 -2.115781 -0.000012 -0.003680 -0.000000 0.000002 -0.000004 4.570446 11.014691 -2.160851 -0.000018 0.000010 -0.000021 10.592512 -0.524535 -2.232396 64.384034 -61.773310 41.270076 27.841791 -0.000040 -0.000134 207.018949 -80.138493 211.881033 28.328825 -0.000013 0.000022 0.000020 -0.000090 -0.000000 2.466119 -1.576154 2.681877 -15.807742 155.405218 -53.883233 3.217829 -1.872006 1.916547 181.770759 14.606286 -267.860922 2.655772 -1.528636 1.514725 134.878081 -35.708943 189.814550 2.020887 -1.154078 1.115148 -0.000001 0.000000 0.000001 9.109094 -0.517888 2.260051 209.468433 -37.644991 255.294358 3.699766 0.000141 -0.000125 37.511979 -141.539292 88.463995 2.849856 0.000258 0.000579 232.036826 -26.798910 -52.027176 2.774878 -0.000049 -0.000025 -0.000001 0.000001 0.000001 9.533223 0.000086 0.000211 203.285431 -55.102107 223.094483 3.699823 0.000062 -0.000045 38.848846 -121.580482 64.478263 2.949793 0.000128 0.000139 38.563183 -137.858544 84.479967 2.952864 -0.000049 0.000064 0.000002 -0.000001 0.000001 9.104613 -0.042832 -1.865197 97.292042 -23.970262 27.121687 3.150030 0.000219 -0.000101 88.260381 -5.843383 5.670523 2.949970 0.000237 -0.000129 88.355928 3.938581 -3.825913 2.644323 0.000030 0.000074 -0.000003 -0.000002 0.000001 8.077852 -0.486644 -3.806408 96.456451 -15.690801 18.187868 3.599945 0.000289 0.014557 101.328295 3.851923 -4.218406 2.099952 0.000323 0.007520 102.721530 10.066431 -12.165581 2.125503 -0.000001 0.007512 0.000001 0.000000 -0.000003 -8.207786 -6.751667 -1.599560 -0.077001 -0.000003 0.000080 -0.000002 -44.370110 0.345938 0.153719 -0.000000 -0.000000 0.000000 -44.423679 -3.043532 -0.076700 0.000000 -0.000002 -0.000006 -8.728667 10.710559 -0.000009 -0.000000 -0.000000 -0.000001 -0.000679 9.278123 0.000000 -0.000000 -0.000000 8.207792 -6.751710 -1.599556 -0.074518 -0.000003 0.000081 -0.000002 -44.370014 0.346960 0.148822 0.000002 0.000000 -0.000001 -44.423664 -3.044403 -0.074314 0.000000 -0.000002 -0.000004 -8.728671 10.710558 0.000007 -0.000000 -0.000000 0.000000 -0.000680 9.278137 -0.000000 0.000000 -0.000001 
0.000006 104.270477 1.554256 0.000010 0.000003 -0.000113 -0.000005 10.181587 0.131522 0.000001 -0.000003 0.000084 -0.000000 9.893967 -1.470711 0.000001 0.000000 -0.000000 -0.000000 9.220802 -1.370642 0.000000 -0.000000 -0.000000 0.000001 16.740433 -2.049030 0.000000 -0.000000 -0.000000 0.000000 9.617859 1.685014 0.000000 0.000000 0.000000 0.000002 22.037384 7.501101 0.000000 -0.000000 0.000000 -4.569968 11.014880 -2.160881 0.000008 0.000001 -0.000038 -10.592865 -0.524791 -2.231857 76.082092 38.265206 -30.373223 -27.841515 0.000011 0.000558 -45.023787 104.975438 56.728324 -28.328810 0.000019 0.000026 -0.000320 -0.000043 0.000003 -2.464379 -1.573836 2.682338 -43.358891 -157.063506 0.028388 -3.215285 -1.872594 1.924650 154.059916 31.005227 0.464999 -2.654945 -1.527871 1.513083 145.767261 27.179336 -37.003028 -2.018838 -1.152016 1.108059 -0.000002 -0.000002 0.000000 -9.108363 -0.517566 2.260169 106.730257 15.230243 -20.446977 -3.700051 0.000330 0.001557 103.270111 11.132468 -14.008204 -2.850059 0.000386 -0.000218 101.923969 8.539200 -10.519515 -2.772159 -0.000001 -0.000014 0.000000 0.000002 -0.000002 -9.532585 0.000258 0.000283 104.331577 15.725747 -20.347659 -3.700077 0.000334 0.004021 105.870043 9.522235 -12.463319 -2.950066 0.000340 -0.001739 107.709699 9.577581 -13.076368 -2.946610 0.000001 -0.000153 0.000001 0.000003 0.000000 -9.103697 -0.042766 -1.864831 102.638667 17.896760 -22.198019 -3.379312 0.000326 -0.000765 105.244418 6.767434 -8.873115 -2.889730 0.000344 0.000714 114.042473 5.476949 -8.500902 -2.638830 0.000000 0.000945 0.000001 -0.000003 -0.000001 -8.076766 -0.486418 -3.805968 97.083250 21.851384 -24.475647 -3.600015 0.000309 -0.003455 102.625361 8.441940 -10.088299 -2.100020 0.000318 -0.005404 109.339792 4.871343 -6.561560 -2.115768 -0.000045 -0.003683 -0.000001 0.000001 -0.000006 4.570446 11.014691 -2.160851 -0.000018 0.000010 -0.000021 10.592522 -0.524527 -2.232398 68.004191 -63.867719 45.606905 27.841772 -0.000047 -0.000136 204.950440 -80.685721 209.200375 28.328833 -0.000029 0.000023 0.000021 -0.000089 -0.000000 2.466117 -1.576152 2.681895 -19.581628 156.387959 -48.196755 3.217849 -1.871994 1.916539 185.428052 15.230477 -271.786532 2.655813 -1.528592 1.514760 137.443897 -61.021361 198.436817 2.020887 -1.154071 1.115135 0.000002 0.000003 0.000001 9.109131 -0.517825 2.260084 227.763613 -34.741556 289.516447 3.699824 0.000178 -0.000103 51.631360 -143.951277 112.146659 2.849871 0.000246 0.000608 242.501932 -25.666051 -41.150578 2.774882 -0.000029 -0.000031 0.000001 0.000001 0.000002 9.533259 0.000107 0.000246 247.022343 -62.083633 275.459507 3.699832 0.000082 -0.000015 73.082648 -123.495940 108.106404 2.949837 0.000135 0.000179 61.711510 -137.468267 113.836202 2.952864 -0.000030 0.000066 0.000000 -0.000002 0.000001 9.104599 -0.042845 -1.865209 91.456499 -22.582444 23.150530 3.150022 0.000239 -0.000122 92.538634 -3.621462 3.787163 2.949984 0.000267 -0.000133 95.007016 3.364879 -3.670855 2.644322 0.000012 0.000068 -0.000001 0.000001 -0.000002 8.077837 -0.486655 -3.806404 94.554113 -14.581682 16.396141 3.599943 0.000303 0.014551 103.304139 4.838328 -5.626075 2.099955 0.000314 0.007512 103.975457 9.668264 -11.929161 2.125506 0.000001 0.007525 -0.000001 0.000000 0.000008 -8.207786 -6.751667 -1.599560 -0.077001 -0.000003 0.000080 -0.000002 -44.370110 0.345938 0.153719 -0.000000 -0.000000 0.000000 -44.423679 -3.043532 -0.076700 0.000000 -0.000002 -0.000006 -8.728667 10.710559 -0.000009 -0.000000 -0.000000 -0.000001 -0.000679 9.278123 0.000000 -0.000000 -0.000000 8.207792 -6.751710 -1.599556 -0.074518 -0.000003 0.000081 -0.000002 -44.370014 0.346960 0.148822 0.000002 0.000000 -0.000001 -44.423664 -3.044403 -0.074314 0.000000 -0.000002 -0.000004 -8.728671 10.710558 0.000007 -0.000000 -0.000000 0.000000 -0.000680 9.278137 -0.000000 0.000000 -0.000001 
